<svg id="Camada_1" data-name="Camada 1" xmlns="http://www.w3.org/2000/svg" viewBox="0 0 22.11 22.11"><path id="Icon_awesome-instagram" data-name="Icon awesome-instagram" class="cls-1" d="M11.06,5.39a5.67,5.67,0,1,0,5.67,5.67,5.67,5.67,0,0,0-5.67-5.67Zm0,9.35a3.69,3.69,0,1,1,3.69-3.68h0a3.7,3.7,0,0,1-3.69,3.68Zm7.22-9.59A1.32,1.32,0,1,1,17,3.83h0a1.32,1.32,0,0,1,1.32,1.32ZM22,6.5a6.51,6.51,0,0,0-1.79-4.64A6.57,6.57,0,0,0,15.62.07C13.79,0,8.32,0,6.49.07A6.59,6.59,0,0,0,1.86,1.86,6.52,6.52,0,0,0,.08,6.49C0,8.32,0,13.79.08,15.62a6.52,6.52,0,0,0,1.78,4.63A6.59,6.59,0,0,0,6.49,22c1.83.1,7.3.1,9.13,0a6.57,6.57,0,0,0,4.63-1.79A6.59,6.59,0,0,0,22,15.62C22.14,13.79,22.14,8.32,22,6.5ZM19.68,17.57a3.68,3.68,0,0,1-2.1,2.1c-1.45.58-4.91.45-6.52.45s-5.06.13-6.52-.45a3.68,3.68,0,0,1-2.1-2.1C1.87,16.12,2,12.66,2,11.06S1.87,6,2.44,4.54a3.74,3.74,0,0,1,2.1-2.1C6,1.86,9.45,2,11.06,2s5.07-.13,6.52.45a3.74,3.74,0,0,1,2.1,2.1c.58,1.45.45,4.91.45,6.52S20.26,16.12,19.68,17.57Z"/></svg>