<svg id="Camada_1" data-name="Camada 1" xmlns="http://www.w3.org/2000/svg" viewBox="0 0 25.5 23.97"><defs><style>.cls-1{fill:#676767;}</style></defs><g id="exclamation-triangle-line"><path id="Caminho_33" data-name="Caminho 33" class="cls-1" d="M12.81,15.28a1.3,1.3,0,0,0,1.3-1.3V8a1.3,1.3,0,1,0-2.6,0h0v6a1.31,1.31,0,0,0,1.28,1.32h0Z"/><path id="Caminho_34" data-name="Caminho 34" class="cls-1" d="M14.26,18.23a1.5,1.5,0,1,1-1.5-1.5A1.5,1.5,0,0,1,14.26,18.23Z"/><path id="Caminho_35" data-name="Caminho 35" class="cls-1" d="M25.14,19.5,15.4,1.57A3,3,0,0,0,11.33.37a3,3,0,0,0-1.2,1.2L.38,19.5a3,3,0,0,0,1.16,4.09A3,3,0,0,0,3,24H22.5a3,3,0,0,0,2.64-4.43Zm-1.78,1.94a1,1,0,0,1-.86.49H3a1,1,0,0,1-1-1,1,1,0,0,1,.12-.49L11.88,2.52a1,1,0,0,1,1.35-.41.9.9,0,0,1,.41.41l9.74,17.93A1,1,0,0,1,23.36,21.44Z"/></g></svg>