<svg id="Camada_1" data-name="Camada 1" xmlns="http://www.w3.org/2000/svg" viewBox="0 0 17.56 13.57"><defs><style>.cls-1{fill:#676767;}</style></defs><path id="next" class="cls-1" d="M17.56,13V.58h0V.52h0A.57.57,0,0,0,17,0h-1.1a.57.57,0,0,0-.57.57V5.9L7.76,1.53a.39.39,0,0,0-.55,0,.41.41,0,0,0-.11.26h0V5.25L.66,1.53a.39.39,0,0,0-.55,0A.36.36,0,0,0,0,1.8H0v10a.39.39,0,0,0,.39.39A.39.39,0,0,0,.67,12L7.1,8.32v3.44a.39.39,0,0,0,.39.39A.36.36,0,0,0,7.77,12l7.54-4.35V13h0v0a.57.57,0,0,0,.58.57H17a.58.58,0,0,0,.57-.57v0Z"/></svg>