<svg id="Camada_1" data-name="Camada 1" xmlns="http://www.w3.org/2000/svg" viewBox="0 0 25.27 20.52"><path id="Icon_awesome-twitter" data-name="Icon awesome-twitter" class="cls-1" d="M22.67,5.11c0,.23,0,.45,0,.68A14.65,14.65,0,0,1,8.15,20.52H8A14.63,14.63,0,0,1,0,18.2c.42,0,.83.06,1.25.06a10.33,10.33,0,0,0,6.43-2.21,5.18,5.18,0,0,1-4.84-3.59,6.35,6.35,0,0,0,1,.08,5.31,5.31,0,0,0,1.37-.18A5.16,5.16,0,0,1,1,7.28V7.22a5.18,5.18,0,0,0,2.34.66A5.19,5.19,0,0,1,1.77,1,14.69,14.69,0,0,0,12.44,6.36a6.66,6.66,0,0,1-.13-1.18A5.2,5.2,0,0,1,17.5,0a5.13,5.13,0,0,1,3.77,1.64A10.42,10.42,0,0,0,24.56.39a5.11,5.11,0,0,1-2.28,2.85,10.67,10.67,0,0,0,3-.8,11.22,11.22,0,0,1-2.6,2.68Z"/></svg>